<svg width="217" height="29" viewBox="0 0 217 29" fill="none" xmlns="http://www.w3.org/2000/svg">
<path d="M0.904762 0.142856H2.80952V2.04762H0.904762V0.142856ZM2.80952 2.04762H4.71429V3.95238H2.80952V2.04762ZM4.71429 2.04762H6.61905V3.95238H4.71429V2.04762ZM6.61905 2.04762H8.52381V3.95238H6.61905V2.04762ZM8.52381 2.04762H10.4286V3.95238H8.52381V2.04762ZM10.4286 2.04762H12.3333V3.95238H10.4286V2.04762ZM4.71429 0.142856H6.61905V2.04762H4.71429V0.142856ZM6.61905 0.142856H8.52381V2.04762H6.61905V0.142856ZM8.52381 0.142856H10.4286V2.04762H8.52381V0.142856ZM10.4286 3.95238H12.3333V5.85714H10.4286V3.95238ZM10.4286 5.85714H12.3333V7.7619H10.4286V5.85714ZM10.4286 9.66667H12.3333V11.5714H10.4286V9.66667ZM10.4286 11.5714H12.3333V13.4762H10.4286V11.5714ZM10.4286 13.4762H12.3333V15.381H10.4286V13.4762ZM8.52381 11.5714H10.4286V13.4762H8.52381V11.5714ZM8.52381 9.66667H10.4286V11.5714H8.52381V9.66667ZM8.52381 7.7619H10.4286V9.66667H8.52381V7.7619ZM8.52381 5.85714H10.4286V7.7619H8.52381V5.85714ZM8.52381 3.95238H10.4286V5.85714H8.52381V3.95238ZM10.4286 7.7619H12.3333V9.66667H10.4286V7.7619ZM8.52381 13.4762H10.4286V15.381H8.52381V13.4762ZM6.61905 7.7619H8.52381V9.66667H6.61905V7.7619ZM4.71429 7.7619H6.61905V9.66667H4.71429V7.7619ZM6.61905 11.5714H8.52381V13.4762H6.61905V11.5714ZM4.71429 11.5714H6.61905V13.4762H4.71429V11.5714ZM8.52381 15.381H10.4286V17.2857H8.52381V15.381ZM10.4286 15.381H12.3333V17.2857H10.4286V15.381ZM8.52381 17.2857H10.4286V19.1905H8.52381V17.2857ZM10.4286 17.2857H12.3333V19.1905H10.4286V17.2857ZM8.52381 19.1905H10.4286V21.0952H8.52381V19.1905ZM10.4286 19.1905H12.3333V21.0952H10.4286V19.1905ZM10.4286 21.0952H12.3333V23H10.4286V21.0952ZM8.52381 21.0952H10.4286V23H8.52381V21.0952ZM8.52381 23H10.4286V24.9048H8.52381V23ZM10.4286 23H12.3333V24.9048H10.4286V23ZM6.61905 19.1905H8.52381V21.0952H6.61905V19.1905ZM4.71429 19.1905H6.61905V21.0952H4.71429V19.1905ZM2.80952 21.0952H4.71429V23H2.80952V21.0952ZM8.52381 24.9048H10.4286V26.8095H8.52381V24.9048ZM8.52381 26.8095H10.4286V28.7143H8.52381V26.8095ZM10.4286 24.9048H12.3333V26.8095H10.4286V24.9048ZM12.3333 21.0952H14.2381V23H12.3333V21.0952ZM14.2381 21.0952H16.1429V23H14.2381V21.0952ZM14.2381 19.1905H16.1429V21.0952H14.2381V19.1905ZM16.1429 19.1905H18.0476V21.0952H16.1429V19.1905ZM18.0476 19.1905H19.9524V21.0952H18.0476V19.1905ZM14.2381 17.2857H16.1429V19.1905H14.2381V17.2857ZM14.2381 15.381H16.1429V17.2857H14.2381V15.381ZM14.2381 13.4762H16.1429V15.381H14.2381V13.4762ZM14.2381 11.5714H16.1429V13.4762H14.2381V11.5714ZM14.2381 9.66667H16.1429V11.5714H14.2381V9.66667ZM14.2381 7.7619H16.1429V9.66667H14.2381V7.7619ZM14.2381 5.85714H16.1429V7.7619H14.2381V5.85714ZM12.3333 3.95238H14.2381V5.85714H12.3333V3.95238ZM14.2381 2.04762H16.1429V3.95238H14.2381V2.04762ZM16.1429 2.04762H18.0476V3.95238H16.1429V2.04762ZM18.0476 2.04762H19.9524V3.95238H18.0476V2.04762ZM19.9524 2.04762H21.8571V3.95238H19.9524V2.04762ZM21.8571 0.142856H23.7619V2.04762H21.8571V0.142856ZM19.9524 3.95238H21.8571V5.85714H19.9524V3.95238ZM19.9524 5.85714H21.8571V7.7619H19.9524V5.85714ZM19.9524 7.7619H21.8571V9.66667H19.9524V7.7619ZM19.9524 9.66667H21.8571V11.5714H19.9524V9.66667ZM19.9524 11.5714H21.8571V13.4762H19.9524V11.5714ZM19.9524 13.4762H21.8571V15.381H19.9524V13.4762ZM19.9524 15.381H21.8571V17.2857H19.9524V15.381ZM19.9524 17.2857H21.8571V19.1905H19.9524V17.2857ZM18.0476 17.2857H19.9524V19.1905H18.0476V17.2857ZM18.0476 15.381H19.9524V17.2857H18.0476V15.381ZM18.0476 13.4762H19.9524V15.381H18.0476V13.4762ZM18.0476 11.5714H19.9524V13.4762H18.0476V11.5714ZM18.0476 9.66667H19.9524V11.5714H18.0476V9.66667ZM18.0476 7.7619H19.9524V9.66667H18.0476V7.7619ZM18.0476 5.85714H19.9524V7.7619H18.0476V5.85714ZM18.0476 3.95238H19.9524V5.85714H18.0476V3.95238ZM25.6704 19.1905H27.5751V21.0952H25.6704V19.1905ZM27.5751 19.1905H29.4799V21.0952H27.5751V19.1905ZM29.4799 19.1905H31.3847V21.0952H29.4799V19.1905ZM31.3847 19.1905H33.2894V21.0952H31.3847V19.1905ZM27.5751 21.0952H29.4799V23H27.5751V21.0952ZM29.4799 21.0952H31.3847V23H29.4799V21.0952ZM29.4799 17.2857H31.3847V19.1905H29.4799V17.2857ZM27.5751 17.2857H29.4799V19.1905H27.5751V17.2857ZM27.5751 15.381H29.4799V17.2857H27.5751V15.381ZM27.5751 13.4762H29.4799V15.381H27.5751V13.4762ZM29.4799 13.4762H31.3847V15.381H29.4799V13.4762ZM29.4799 11.5714H31.3847V13.4762H29.4799V11.5714ZM29.4799 15.381H31.3847V17.2857H29.4799V15.381ZM27.5751 11.5714H29.4799V13.4762H27.5751V11.5714ZM27.5751 9.66667H29.4799V11.5714H27.5751V9.66667ZM29.4799 9.66667H31.3847V11.5714H29.4799V9.66667ZM29.4799 7.7619H31.3847V9.66667H29.4799V7.7619ZM27.5751 7.7619H29.4799V9.66667H27.5751V7.7619ZM25.6704 9.66667H27.5751V11.5714H25.6704V9.66667ZM31.3847 9.66667H33.2894V11.5714H31.3847V9.66667ZM29.4799 2.04762H31.3847V3.95238H29.4799V2.04762ZM27.5751 2.04762H29.4799V3.95238H27.5751V2.04762ZM27.5751 0.142856H29.4799V2.04762H27.5751V0.142856ZM29.4799 0.142856H31.3847V2.04762H29.4799V0.142856ZM37.1064 19.1905H39.0112V21.0952H37.1064V19.1905ZM39.0112 19.1905H40.9159V21.0952H39.0112V19.1905ZM40.9159 19.1905H42.8207V21.0952H40.9159V19.1905ZM42.8207 19.1905H44.7254V21.0952H42.8207V19.1905ZM39.0112 21.0952H40.9159V23H39.0112V21.0952ZM40.9159 21.0952H42.8207V23H40.9159V21.0952ZM39.0112 17.2857H40.9159V19.1905H39.0112V17.2857ZM40.9159 17.2857H42.8207V19.1905H40.9159V17.2857ZM40.9159 15.381H42.8207V17.2857H40.9159V15.381ZM40.9159 13.4762H42.8207V15.381H40.9159V13.4762ZM40.9159 11.5714H42.8207V13.4762H40.9159V11.5714ZM39.0112 11.5714H40.9159V13.4762H39.0112V11.5714ZM39.0112 13.4762H40.9159V15.381H39.0112V13.4762ZM39.0112 15.381H40.9159V17.2857H39.0112V15.381ZM40.9159 9.66667H42.8207V11.5714H40.9159V9.66667ZM39.0112 9.66667H40.9159V11.5714H39.0112V9.66667ZM37.1064 9.66667H39.0112V11.5714H37.1064V9.66667ZM35.2016 9.66667H37.1064V11.5714H35.2016V9.66667ZM37.1064 7.7619H39.0112V9.66667H37.1064V7.7619ZM39.0112 7.7619H40.9159V9.66667H39.0112V7.7619ZM42.8207 7.7619H44.7254V9.66667H42.8207V7.7619ZM44.7254 7.7619H46.6302V9.66667H44.7254V7.7619ZM46.6302 7.7619H48.535V9.66667H46.6302V7.7619ZM44.7254 9.66667H46.6302V11.5714H44.7254V9.66667ZM46.6302 9.66667H48.535V11.5714H46.6302V9.66667ZM50.4267 19.1905H52.3315V21.0952H50.4267V19.1905ZM52.3315 19.1905H54.2362V21.0952H52.3315V19.1905ZM54.2362 19.1905H56.141V21.0952H54.2362V19.1905ZM56.141 19.1905H58.0458V21.0952H56.141V19.1905ZM52.3315 21.0952H54.2362V23H52.3315V21.0952ZM54.2362 21.0952H56.141V23H54.2362V21.0952ZM48.5219 19.1905H50.4267V21.0952H48.5219V19.1905ZM50.4267 17.2857H52.3315V19.1905H50.4267V17.2857ZM50.4267 15.381H52.3315V17.2857H50.4267V15.381ZM50.4267 13.4762H52.3315V15.381H50.4267V13.4762ZM52.3315 17.2857H54.2362V19.1905H52.3315V17.2857ZM52.3315 15.381H54.2362V17.2857H52.3315V15.381ZM52.3315 13.4762H54.2362V15.381H52.3315V13.4762ZM52.3315 11.5714H54.2362V13.4762H52.3315V11.5714ZM58.0458 9.66667H59.9505V11.5714H58.0458V9.66667ZM58.0458 11.5714H59.9505V13.4762H58.0458V11.5714ZM59.9505 11.5714H61.8553V13.4762H59.9505V11.5714ZM58.0458 13.4762H59.9505V15.381H58.0458V13.4762ZM59.9505 13.4762H61.8553V15.381H59.9505V13.4762ZM59.9505 15.381H61.8553V17.2857H59.9505V15.381ZM58.0458 15.381H59.9505V17.2857H58.0458V15.381ZM58.0458 17.2857H59.9505V19.1905H58.0458V17.2857ZM59.9505 17.2857H61.8553V19.1905H59.9505V17.2857ZM58.0458 19.1905H59.9505V21.0952H58.0458V19.1905ZM58.0458 21.0952H59.9505V23H58.0458V21.0952ZM59.9505 21.0952H61.8553V23H59.9505V21.0952ZM59.9505 19.1905H61.8553V21.0952H59.9505V19.1905ZM61.8553 19.1905H63.76V21.0952H61.8553V19.1905ZM54.2362 7.7619H56.141V9.66667H54.2362V7.7619ZM56.141 7.7619H58.0458V9.66667H56.141V7.7619ZM58.0458 7.7619H59.9505V9.66667H58.0458V7.7619ZM61.8553 9.66667H63.76V11.5714H61.8553V9.66667ZM59.9505 9.66667H61.8553V11.5714H59.9505V9.66667ZM52.3315 9.66667H54.2362V11.5714H52.3315V9.66667ZM50.4267 11.5714H52.3315V13.4762H50.4267V11.5714ZM65.6704 19.1905H67.5751V21.0952H65.6704V19.1905ZM67.5751 19.1905H69.4799V21.0952H67.5751V19.1905ZM69.4799 19.1905H71.3847V21.0952H69.4799V19.1905ZM71.3847 19.1905H73.2894V21.0952H71.3847V19.1905ZM73.2894 19.1905H75.1942V21.0952H73.2894V19.1905ZM69.4799 21.0952H71.3847V23H69.4799V21.0952ZM71.3847 21.0952H73.2894V23H71.3847V21.0952ZM67.5751 17.2857H69.4799V19.1905H67.5751V17.2857ZM69.4799 17.2857H71.3847V19.1905H69.4799V17.2857ZM69.4799 15.381H71.3847V17.2857H69.4799V15.381ZM69.4799 13.4762H71.3847V15.381H69.4799V13.4762ZM67.5751 13.4762H69.4799V15.381H67.5751V13.4762ZM67.5751 15.381H69.4799V17.2857H67.5751V15.381ZM67.5751 11.5714H69.4799V13.4762H67.5751V11.5714ZM69.4799 11.5714H71.3847V13.4762H69.4799V11.5714ZM69.4799 9.66667H71.3847V11.5714H69.4799V9.66667ZM69.4799 7.7619H71.3847V9.66667H69.4799V7.7619ZM67.5751 9.66667H69.4799V11.5714H67.5751V9.66667ZM67.5751 7.7619H69.4799V9.66667H67.5751V7.7619ZM65.6704 7.7619H67.5751V9.66667H65.6704V7.7619ZM71.3847 7.7619H73.2894V9.66667H71.3847V7.7619ZM67.5751 5.85714H69.4799V7.7619H67.5751V5.85714ZM69.4799 5.85714H71.3847V7.7619H69.4799V5.85714ZM69.4799 3.95238H71.3847V5.85714H69.4799V3.95238ZM67.5751 3.95238H69.4799V5.85714H67.5751V3.95238ZM69.4799 2.04762H71.3847V3.95238H69.4799V2.04762ZM73.2894 7.7619H75.1942V9.66667H73.2894V7.7619ZM79.0205 19.1905H80.9252V21.0952H79.0205V19.1905ZM77.1157 19.1905H79.0205V21.0952H77.1157V19.1905ZM80.9252 19.1905H82.83V21.0952H80.9252V19.1905ZM79.0205 21.0952H80.9252V23H79.0205V21.0952ZM80.9252 21.0952H82.83V23H80.9252V21.0952ZM79.0205 15.381H80.9252V17.2857H79.0205V15.381ZM80.9252 15.381H82.83V17.2857H80.9252V15.381ZM80.9252 13.4762H82.83V15.381H80.9252V13.4762ZM80.9252 11.5714H82.83V13.4762H80.9252V11.5714ZM79.0205 11.5714H80.9252V13.4762H79.0205V11.5714ZM79.0205 13.4762H80.9252V15.381H79.0205V13.4762ZM80.9252 9.66667H82.83V11.5714H80.9252V9.66667ZM82.83 7.7619H84.7347V9.66667H82.83V7.7619ZM86.6395 7.7619H88.5443V9.66667H86.6395V7.7619ZM84.7347 7.7619H86.6395V9.66667H84.7347V7.7619ZM86.6395 9.66667H88.5443V11.5714H86.6395V9.66667ZM82.83 19.1905H84.7347V21.0952H82.83V19.1905ZM84.7347 9.66667H86.6395V11.5714H84.7347V9.66667ZM88.5443 9.66667H90.449V11.5714H88.5443V9.66667ZM88.5443 11.5714H90.449V13.4762H88.5443V11.5714ZM86.6395 11.5714H88.5443V13.4762H86.6395V11.5714ZM84.7347 13.4762H86.6395V15.381H84.7347V13.4762ZM82.83 13.4762H84.7347V15.381H82.83V13.4762ZM79.0205 17.2857H80.9252V19.1905H79.0205V17.2857ZM80.9252 17.2857H82.83V19.1905H80.9252V17.2857ZM84.7347 19.1905H86.6395V21.0952H84.7347V19.1905ZM98.0644 7.7619H99.9691V9.66667H98.0644V7.7619ZM99.9691 7.7619H101.874V9.66667H99.9691V7.7619ZM96.1596 9.66667H98.0644V11.5714H96.1596V9.66667ZM98.0644 9.66667H99.9691V11.5714H98.0644V9.66667ZM99.9691 9.66667H101.874V11.5714H99.9691V9.66667ZM101.874 9.66667H103.779V11.5714H101.874V9.66667ZM103.779 7.7619H105.683V9.66667H103.779V7.7619ZM94.2548 11.5714H96.1596V13.4762H94.2548V11.5714ZM94.2548 13.4762H96.1596V15.381H94.2548V13.4762ZM103.779 5.85714H105.683V7.7619H103.779V5.85714ZM103.779 11.5714H105.683V13.4762H103.779V11.5714ZM96.1596 11.5714H98.0644V13.4762H96.1596V11.5714ZM96.1596 13.4762H98.0644V15.381H96.1596V13.4762ZM94.2548 15.381H96.1596V17.2857H94.2548V15.381ZM96.1596 15.381H98.0644V17.2857H96.1596V15.381ZM98.0644 15.381H99.9691V17.2857H98.0644V15.381ZM99.9691 13.4762H101.874V15.381H99.9691V13.4762ZM101.874 13.4762H103.779V15.381H101.874V13.4762ZM96.1596 17.2857H98.0644V19.1905H96.1596V17.2857ZM94.2548 19.1905H96.1596V21.0952H94.2548V19.1905ZM96.1596 19.1905H98.0644V21.0952H96.1596V19.1905ZM98.0644 19.1905H99.9691V21.0952H98.0644V19.1905ZM99.9691 19.1905H101.874V21.0952H99.9691V19.1905ZM101.874 19.1905H103.779V21.0952H101.874V19.1905ZM98.0644 21.0952H99.9691V23H98.0644V21.0952ZM99.9691 21.0952H101.874V23H99.9691V21.0952ZM92.3501 21.0952H94.2548V23H92.3501V21.0952ZM101.874 15.381H103.779V17.2857H101.874V15.381ZM101.874 17.2857H103.779V19.1905H101.874V17.2857ZM103.779 15.381H105.683V17.2857H103.779V15.381ZM103.779 17.2857H105.683V19.1905H103.779V17.2857ZM117.116 0.142856H119.02V2.04762H117.116V0.142856ZM119.02 2.04762H120.925V3.95238H119.02V2.04762ZM120.925 2.04762H122.83V3.95238H120.925V2.04762ZM122.83 2.04762H124.735V3.95238H122.83V2.04762ZM124.735 2.04762H126.64V3.95238H124.735V2.04762ZM126.64 2.04762H128.544V3.95238H126.64V2.04762ZM120.925 0.142856H122.83V2.04762H120.925V0.142856ZM122.83 0.142856H124.735V2.04762H122.83V0.142856ZM124.735 0.142856H126.64V2.04762H124.735V0.142856ZM126.64 3.95238H128.544V5.85714H126.64V3.95238ZM126.64 5.85714H128.544V7.7619H126.64V5.85714ZM126.64 9.66667H128.544V11.5714H126.64V9.66667ZM126.64 11.5714H128.544V13.4762H126.64V11.5714ZM126.64 13.4762H128.544V15.381H126.64V13.4762ZM124.735 11.5714H126.64V13.4762H124.735V11.5714ZM124.735 9.66667H126.64V11.5714H124.735V9.66667ZM124.735 7.7619H126.64V9.66667H124.735V7.7619ZM124.735 5.85714H126.64V7.7619H124.735V5.85714ZM124.735 3.95238H126.64V5.85714H124.735V3.95238ZM126.64 7.7619H128.544V9.66667H126.64V7.7619ZM124.735 13.4762H126.64V15.381H124.735V13.4762ZM122.83 7.7619H124.735V9.66667H122.83V7.7619ZM120.925 7.7619H122.83V9.66667H120.925V7.7619ZM122.83 11.5714H124.735V13.4762H122.83V11.5714ZM120.925 11.5714H122.83V13.4762H120.925V11.5714ZM124.735 15.381H126.64V17.2857H124.735V15.381ZM126.64 15.381H128.544V17.2857H126.64V15.381ZM124.735 17.2857H126.64V19.1905H124.735V17.2857ZM126.64 17.2857H128.544V19.1905H126.64V17.2857ZM124.735 19.1905H126.64V21.0952H124.735V19.1905ZM126.64 19.1905H128.544V21.0952H126.64V19.1905ZM126.64 21.0952H128.544V23H126.64V21.0952ZM124.735 21.0952H126.64V23H124.735V21.0952ZM124.735 23H126.64V24.9048H124.735V23ZM126.64 23H128.544V24.9048H126.64V23ZM122.83 19.1905H124.735V21.0952H122.83V19.1905ZM120.925 19.1905H122.83V21.0952H120.925V19.1905ZM119.02 21.0952H120.925V23H119.02V21.0952ZM124.735 24.9048H126.64V26.8095H124.735V24.9048ZM124.735 26.8095H126.64V28.7143H124.735V26.8095ZM126.64 24.9048H128.544V26.8095H126.64V24.9048ZM128.544 21.0952H130.449V23H128.544V21.0952ZM130.449 21.0952H132.354V23H130.449V21.0952ZM130.449 19.1905H132.354V21.0952H130.449V19.1905ZM132.354 19.1905H134.259V21.0952H132.354V19.1905ZM134.259 19.1905H136.163V21.0952H134.259V19.1905ZM130.449 17.2857H132.354V19.1905H130.449V17.2857ZM130.449 15.381H132.354V17.2857H130.449V15.381ZM130.449 13.4762H132.354V15.381H130.449V13.4762ZM130.449 11.5714H132.354V13.4762H130.449V11.5714ZM130.449 9.66667H132.354V11.5714H130.449V9.66667ZM130.449 7.7619H132.354V9.66667H130.449V7.7619ZM130.449 5.85714H132.354V7.7619H130.449V5.85714ZM128.544 3.95238H130.449V5.85714H128.544V3.95238ZM130.449 2.04762H132.354V3.95238H130.449V2.04762ZM132.354 2.04762H134.259V3.95238H132.354V2.04762ZM134.259 2.04762H136.163V3.95238H134.259V2.04762ZM136.163 2.04762H138.068V3.95238H136.163V2.04762ZM138.068 0.142856H139.973V2.04762H138.068V0.142856ZM136.163 3.95238H138.068V5.85714H136.163V3.95238ZM136.163 5.85714H138.068V7.7619H136.163V5.85714ZM136.163 7.7619H138.068V9.66667H136.163V7.7619ZM136.163 9.66667H138.068V11.5714H136.163V9.66667ZM136.163 11.5714H138.068V13.4762H136.163V11.5714ZM136.163 13.4762H138.068V15.381H136.163V13.4762ZM136.163 15.381H138.068V17.2857H136.163V15.381ZM136.163 17.2857H138.068V19.1905H136.163V17.2857ZM134.259 17.2857H136.163V19.1905H134.259V17.2857ZM134.259 15.381H136.163V17.2857H134.259V15.381ZM134.259 13.4762H136.163V15.381H134.259V13.4762ZM134.259 11.5714H136.163V13.4762H134.259V11.5714ZM134.259 9.66667H136.163V11.5714H134.259V9.66667ZM134.259 7.7619H136.163V9.66667H134.259V7.7619ZM134.259 5.85714H136.163V7.7619H134.259V5.85714ZM134.259 3.95238H136.163V5.85714H134.259V3.95238ZM143.786 19.1905H145.691V21.0952H143.786V19.1905ZM145.691 19.1905H147.596V21.0952H145.691V19.1905ZM147.596 19.1905H149.5V21.0952H147.596V19.1905ZM149.5 19.1905H151.405V21.0952H149.5V19.1905ZM145.691 21.0952H147.596V23H145.691V21.0952ZM147.596 21.0952H149.5V23H147.596V21.0952ZM141.881 19.1905H143.786V21.0952H141.881V19.1905ZM143.786 17.2857H145.691V19.1905H143.786V17.2857ZM143.786 15.381H145.691V17.2857H143.786V15.381ZM143.786 13.4762H145.691V15.381H143.786V13.4762ZM145.691 17.2857H147.596V19.1905H145.691V17.2857ZM145.691 15.381H147.596V17.2857H145.691V15.381ZM145.691 13.4762H147.596V15.381H145.691V13.4762ZM145.691 11.5714H147.596V13.4762H145.691V11.5714ZM151.405 9.66667H153.31V11.5714H151.405V9.66667ZM151.405 11.5714H153.31V13.4762H151.405V11.5714ZM153.31 11.5714H155.215V13.4762H153.31V11.5714ZM151.405 13.4762H153.31V15.381H151.405V13.4762ZM153.31 13.4762H155.215V15.381H153.31V13.4762ZM153.31 15.381H155.215V17.2857H153.31V15.381ZM151.405 15.381H153.31V17.2857H151.405V15.381ZM151.405 17.2857H153.31V19.1905H151.405V17.2857ZM153.31 17.2857H155.215V19.1905H153.31V17.2857ZM151.405 19.1905H153.31V21.0952H151.405V19.1905ZM151.405 21.0952H153.31V23H151.405V21.0952ZM153.31 21.0952H155.215V23H153.31V21.0952ZM153.31 19.1905H155.215V21.0952H153.31V19.1905ZM155.215 19.1905H157.119V21.0952H155.215V19.1905ZM147.596 7.7619H149.5V9.66667H147.596V7.7619ZM149.5 7.7619H151.405V9.66667H149.5V7.7619ZM151.405 7.7619H153.31V9.66667H151.405V7.7619ZM155.215 9.66667H157.119V11.5714H155.215V9.66667ZM153.31 9.66667H155.215V11.5714H153.31V9.66667ZM145.691 9.66667H147.596V11.5714H145.691V9.66667ZM143.786 11.5714H145.691V13.4762H143.786V11.5714ZM160.935 19.1905H162.839V21.0952H160.935V19.1905ZM162.839 19.1905H164.744V21.0952H162.839V19.1905ZM164.744 19.1905H166.649V21.0952H164.744V19.1905ZM166.649 19.1905H168.554V21.0952H166.649V19.1905ZM162.839 21.0952H164.744V23H162.839V21.0952ZM164.744 21.0952H166.649V23H164.744V21.0952ZM162.839 17.2857H164.744V19.1905H162.839V17.2857ZM164.744 17.2857H166.649V19.1905H164.744V17.2857ZM164.744 15.381H166.649V17.2857H164.744V15.381ZM164.744 13.4762H166.649V15.381H164.744V13.4762ZM164.744 11.5714H166.649V13.4762H164.744V11.5714ZM162.839 11.5714H164.744V13.4762H162.839V11.5714ZM162.839 13.4762H164.744V15.381H162.839V13.4762ZM162.839 15.381H164.744V17.2857H162.839V15.381ZM164.744 9.66667H166.649V11.5714H164.744V9.66667ZM162.839 9.66667H164.744V11.5714H162.839V9.66667ZM160.935 9.66667H162.839V11.5714H160.935V9.66667ZM159.03 9.66667H160.935V11.5714H159.03V9.66667ZM160.935 7.7619H162.839V9.66667H160.935V7.7619ZM162.839 7.7619H164.744V9.66667H162.839V7.7619ZM166.649 7.7619H168.554V9.66667H166.649V7.7619ZM168.554 7.7619H170.458V9.66667H168.554V7.7619ZM170.458 7.7619H172.363V9.66667H170.458V7.7619ZM168.554 9.66667H170.458V11.5714H168.554V9.66667ZM170.458 9.66667H172.363V11.5714H170.458V9.66667ZM176.169 21.0952H178.074V23H176.169V21.0952ZM178.074 21.0952H179.978V23H178.074V21.0952ZM174.264 19.1905H176.169V21.0952H174.264V19.1905ZM176.169 19.1905H178.074V21.0952H176.169V19.1905ZM178.074 19.1905H179.978V21.0952H178.074V19.1905ZM179.978 19.1905H181.883V21.0952H179.978V19.1905ZM176.169 17.2857H178.074V19.1905H176.169V17.2857ZM178.074 17.2857H179.978V19.1905H178.074V17.2857ZM178.074 15.381H179.978V17.2857H178.074V15.381ZM178.074 13.4762H179.978V15.381H178.074V13.4762ZM176.169 13.4762H178.074V15.381H176.169V13.4762ZM176.169 11.5714H178.074V13.4762H176.169V11.5714ZM176.169 9.66667H178.074V11.5714H176.169V9.66667ZM176.169 15.381H178.074V17.2857H176.169V15.381ZM178.074 11.5714H179.978V13.4762H178.074V11.5714ZM178.074 9.66667H179.978V11.5714H178.074V9.66667ZM178.074 7.7619H179.978V9.66667H178.074V7.7619ZM178.074 2.04762H179.978V3.95238H178.074V2.04762ZM178.074 3.95238H179.978V5.85714H178.074V3.95238ZM178.074 5.85714H179.978V7.7619H178.074V5.85714ZM176.169 7.7619H178.074V9.66667H176.169V7.7619ZM176.169 5.85714H178.074V7.7619H176.169V5.85714ZM176.169 3.95238H178.074V5.85714H176.169V3.95238ZM176.169 2.04762H178.074V3.95238H176.169V2.04762ZM178.074 0.142856H179.978V2.04762H178.074V0.142856ZM185.7 19.1905H187.605V21.0952H185.7V19.1905ZM183.795 19.1905H185.7V21.0952H183.795V19.1905ZM187.605 19.1905H189.51V21.0952H187.605V19.1905ZM185.7 21.0952H187.605V23H185.7V21.0952ZM187.605 21.0952H189.51V23H187.605V21.0952ZM185.7 15.381H187.605V17.2857H185.7V15.381ZM187.605 15.381H189.51V17.2857H187.605V15.381ZM187.605 13.4762H189.51V15.381H187.605V13.4762ZM187.605 11.5714H189.51V13.4762H187.605V11.5714ZM185.7 11.5714H187.605V13.4762H185.7V11.5714ZM185.7 13.4762H187.605V15.381H185.7V13.4762ZM187.605 9.66667H189.51V11.5714H187.605V9.66667ZM189.51 7.7619H191.414V9.66667H189.51V7.7619ZM193.319 7.7619H195.224V9.66667H193.319V7.7619ZM191.414 7.7619H193.319V9.66667H191.414V7.7619ZM193.319 9.66667H195.224V11.5714H193.319V9.66667ZM189.51 19.1905H191.414V21.0952H189.51V19.1905ZM191.414 9.66667H193.319V11.5714H191.414V9.66667ZM195.224 9.66667H197.129V11.5714H195.224V9.66667ZM195.224 11.5714H197.129V13.4762H195.224V11.5714ZM193.319 11.5714H195.224V13.4762H193.319V11.5714ZM191.414 13.4762H193.319V15.381H191.414V13.4762ZM189.51 13.4762H191.414V15.381H189.51V13.4762ZM185.7 17.2857H187.605V19.1905H185.7V17.2857ZM187.605 17.2857H189.51V19.1905H187.605V17.2857ZM191.414 19.1905H193.319V21.0952H191.414V19.1905ZM199.03 9.66667H200.935V11.5714H199.03V9.66667ZM200.935 9.66667H202.839V11.5714H200.935V9.66667ZM202.839 9.66667H204.744V11.5714H202.839V9.66667ZM204.744 9.66667H206.649V11.5714H204.744V9.66667ZM206.649 9.66667H208.554V11.5714H206.649V9.66667ZM208.554 9.66667H210.458V11.5714H208.554V9.66667ZM210.458 9.66667H212.363V11.5714H210.458V9.66667ZM212.363 9.66667H214.268V11.5714H212.363V9.66667ZM200.935 7.7619H202.839V9.66667H200.935V7.7619ZM202.839 7.7619H204.744V9.66667H202.839V7.7619ZM208.554 7.7619H210.458V9.66667H208.554V7.7619ZM210.458 7.7619H212.363V9.66667H210.458V7.7619ZM214.268 9.66667H216.173V11.5714H214.268V9.66667ZM212.363 11.5714H214.268V13.4762H212.363V11.5714ZM212.363 13.4762H214.268V15.381H212.363V13.4762ZM212.363 15.381H214.268V17.2857H212.363V15.381ZM210.458 15.381H212.363V17.2857H210.458V15.381ZM210.458 13.4762H212.363V15.381H210.458V13.4762ZM210.458 11.5714H212.363V13.4762H210.458V11.5714ZM202.839 11.5714H204.744V13.4762H202.839V11.5714ZM204.744 11.5714H206.649V13.4762H204.744V11.5714ZM204.744 13.4762H206.649V15.381H204.744V13.4762ZM204.744 15.381H206.649V17.2857H204.744V15.381ZM202.839 15.381H204.744V17.2857H202.839V15.381ZM202.839 13.4762H204.744V15.381H202.839V13.4762ZM202.839 17.2857H204.744V19.1905H202.839V17.2857ZM204.744 17.2857H206.649V19.1905H204.744V17.2857ZM204.744 19.1905H206.649V21.0952H204.744V19.1905ZM202.839 19.1905H204.744V21.0952H202.839V19.1905ZM204.744 21.0952H206.649V23H204.744V21.0952ZM202.839 21.0952H204.744V23H202.839V21.0952ZM200.935 21.0952H202.839V23H200.935V21.0952ZM200.935 23H202.839V24.9048H200.935V23ZM199.03 23H200.935V24.9048H199.03V23ZM199.03 24.9048H200.935V26.8095H199.03V24.9048ZM210.458 19.1905H212.363V21.0952H210.458V19.1905ZM212.363 17.2857H214.268V19.1905H212.363V17.2857ZM210.458 17.2857H212.363V19.1905H210.458V17.2857ZM208.554 17.2857H210.458V19.1905H208.554V17.2857ZM210.458 21.0952H212.363V23H210.458V21.0952ZM208.554 21.0952H210.458V23H208.554V21.0952ZM206.649 21.0952H208.554V23H206.649V21.0952ZM210.458 24.9048H212.363V26.8095H210.458V24.9048ZM208.554 24.9048H210.458V26.8095H208.554V24.9048ZM208.554 26.8095H210.458V28.7143H208.554V26.8095ZM206.649 26.8095H208.554V28.7143H206.649V26.8095ZM206.649 24.9048H208.554V26.8095H206.649V24.9048ZM204.744 26.8095H206.649V28.7143H204.744V26.8095ZM202.839 26.8095H204.744V28.7143H202.839V26.8095ZM200.935 26.8095H202.839V28.7143H200.935V26.8095ZM202.839 23H204.744V24.9048H202.839V23Z" fill="black"/>
</svg>
