<svg width="179" height="19" viewBox="0 0 179 19" fill="none" xmlns="http://www.w3.org/2000/svg">
<path d="M0.0886278 13.7725H1.31614V15H0.0886278V13.7725ZM1.31614 12.545H2.54365V13.7725H1.31614V12.545ZM2.54365 13.7725H3.77117V15H2.54365V13.7725ZM2.54365 12.545H3.77117V13.7725H2.54365V12.545ZM2.54365 11.3175H3.77117V12.545H2.54365V11.3175ZM3.77117 11.3175H4.99868V12.545H3.77117V11.3175ZM3.77117 10.0899H4.99868V11.3175H3.77117V10.0899ZM3.77117 12.545H4.99868V13.7725H3.77117V12.545ZM3.77117 13.7725H4.99868V15H3.77117V13.7725ZM2.54365 15H3.77117V16.2275H2.54365V15ZM2.54365 16.2275H3.77117V17.455H2.54365V16.2275ZM2.54365 17.455H3.77117V18.6825H2.54365V17.455ZM3.77117 16.2275H4.99868V17.455H3.77117V16.2275ZM3.77117 15H4.99868V16.2275H3.77117V15ZM2.54365 10.0899H3.77117V11.3175H2.54365V10.0899ZM2.54365 8.86243H3.77117V10.0899H2.54365V8.86243ZM2.54365 7.63492H3.77117V8.86243H2.54365V7.63492ZM2.54365 6.40741H3.77117V7.63492H2.54365V6.40741ZM0.0886278 6.40741H1.31614V7.63492H0.0886278V6.40741ZM1.31614 6.40741H2.54365V7.63492H1.31614V6.40741ZM1.31614 5.17989H2.54365V6.40741H1.31614V5.17989ZM2.54365 5.17989H3.77117V6.40741H2.54365V5.17989ZM3.77117 6.40741H4.99868V7.63492H3.77117V6.40741ZM4.99868 6.40741H6.22619V7.63492H4.99868V6.40741ZM6.22619 6.40741H7.45371V7.63492H6.22619V6.40741ZM7.45371 6.40741H8.68122V7.63492H7.45371V6.40741ZM8.68122 6.40741H9.90873V7.63492H8.68122V6.40741ZM6.22619 5.17989H7.45371V6.40741H6.22619V5.17989ZM7.45371 5.17989H8.68122V6.40741H7.45371V5.17989ZM9.90873 6.40741H11.1362V7.63492H9.90873V6.40741ZM8.68122 7.63492H9.90873V8.86243H8.68122V7.63492ZM8.68122 8.86243H9.90873V10.0899H8.68122V8.86243ZM8.68122 10.0899H9.90873V11.3175H8.68122V10.0899ZM8.68122 11.3175H9.90873V12.545H8.68122V11.3175ZM7.45371 11.3175H8.68122V12.545H7.45371V11.3175ZM7.45371 10.0899H8.68122V11.3175H7.45371V10.0899ZM7.45371 8.86243H8.68122V10.0899H7.45371V8.86243ZM7.45371 7.63492H8.68122V8.86243H7.45371V7.63492ZM3.77117 8.86243H4.99868V10.0899H3.77117V8.86243ZM3.77117 7.63492H4.99868V8.86243H3.77117V7.63492ZM7.45371 13.7725H8.68122V15H7.45371V13.7725ZM7.45371 12.545H8.68122V13.7725H7.45371V12.545ZM8.68122 12.545H9.90873V13.7725H8.68122V12.545ZM9.90873 12.545H11.1362V13.7725H9.90873V12.545ZM6.22619 12.545H7.45371V13.7725H6.22619V12.545ZM4.99868 12.545H6.22619V13.7725H4.99868V12.545ZM13.6009 13.7725H14.8284V15H13.6009V13.7725ZM14.8284 13.7725H16.0559V15H14.8284V13.7725ZM12.3734 12.545H13.6009V13.7725H12.3734V12.545ZM13.6009 12.545H14.8284V13.7725H13.6009V12.545ZM14.8284 12.545H16.0559V13.7725H14.8284V12.545ZM16.0559 12.545H17.2834V13.7725H16.0559V12.545ZM13.6009 11.3175H14.8284V12.545H13.6009V11.3175ZM14.8284 11.3175H16.0559V12.545H14.8284V11.3175ZM14.8284 10.0899H16.0559V11.3175H14.8284V10.0899ZM14.8284 8.86243H16.0559V10.0899H14.8284V8.86243ZM13.6009 8.86243H14.8284V10.0899H13.6009V8.86243ZM13.6009 7.63492H14.8284V8.86243H13.6009V7.63492ZM13.6009 6.40741H14.8284V7.63492H13.6009V6.40741ZM13.6009 10.0899H14.8284V11.3175H13.6009V10.0899ZM14.8284 7.63492H16.0559V8.86243H14.8284V7.63492ZM14.8284 6.40741H16.0559V7.63492H14.8284V6.40741ZM14.8284 5.17989H16.0559V6.40741H14.8284V5.17989ZM14.8284 1.49735H16.0559V2.72487H14.8284V1.49735ZM14.8284 2.72487H16.0559V3.95238H14.8284V2.72487ZM14.8284 3.95238H16.0559V5.17989H14.8284V3.95238ZM13.6009 5.17989H14.8284V6.40741H13.6009V5.17989ZM13.6009 3.95238H14.8284V5.17989H13.6009V3.95238ZM13.6009 2.72487H14.8284V3.95238H13.6009V2.72487ZM13.6009 1.49735H14.8284V2.72487H13.6009V1.49735ZM14.8284 0.26984H16.0559V1.49735H14.8284V0.26984ZM19.7432 12.545H20.9707V13.7725H19.7432V12.545ZM20.9707 12.545H22.1983V13.7725H20.9707V12.545ZM22.1983 12.545H23.4258V13.7725H22.1983V12.545ZM23.4258 12.545H24.6533V13.7725H23.4258V12.545ZM20.9707 13.7725H22.1983V15H20.9707V13.7725ZM22.1983 13.7725H23.4258V15H22.1983V13.7725ZM18.5157 12.545H19.7432V13.7725H18.5157V12.545ZM19.7432 11.3175H20.9707V12.545H19.7432V11.3175ZM19.7432 10.0899H20.9707V11.3175H19.7432V10.0899ZM19.7432 8.86243H20.9707V10.0899H19.7432V8.86243ZM20.9707 11.3175H22.1983V12.545H20.9707V11.3175ZM20.9707 10.0899H22.1983V11.3175H20.9707V10.0899ZM20.9707 8.86243H22.1983V10.0899H20.9707V8.86243ZM20.9707 7.63492H22.1983V8.86243H20.9707V7.63492ZM24.6533 6.40741H25.8808V7.63492H24.6533V6.40741ZM24.6533 7.63492H25.8808V8.86243H24.6533V7.63492ZM25.8808 7.63492H27.1083V8.86243H25.8808V7.63492ZM24.6533 8.86243H25.8808V10.0899H24.6533V8.86243ZM25.8808 8.86243H27.1083V10.0899H25.8808V8.86243ZM25.8808 10.0899H27.1083V11.3175H25.8808V10.0899ZM24.6533 10.0899H25.8808V11.3175H24.6533V10.0899ZM24.6533 11.3175H25.8808V12.545H24.6533V11.3175ZM25.8808 11.3175H27.1083V12.545H25.8808V11.3175ZM24.6533 12.545H25.8808V13.7725H24.6533V12.545ZM24.6533 13.7725H25.8808V15H24.6533V13.7725ZM25.8808 13.7725H27.1083V15H25.8808V13.7725ZM25.8808 12.545H27.1083V13.7725H25.8808V12.545ZM27.1083 12.545H28.3358V13.7725H27.1083V12.545ZM22.1983 5.17989H23.4258V6.40741H22.1983V5.17989ZM23.4258 5.17989H24.6533V6.40741H23.4258V5.17989ZM24.6533 5.17989H25.8808V6.40741H24.6533V5.17989ZM27.1083 6.40741H28.3358V7.63492H27.1083V6.40741ZM25.8808 6.40741H27.1083V7.63492H25.8808V6.40741ZM20.9707 6.40741H22.1983V7.63492H20.9707V6.40741ZM19.7432 7.63492H20.9707V8.86243H19.7432V7.63492ZM29.5669 6.40741H30.7944V7.63492H29.5669V6.40741ZM30.7944 6.40741H32.022V7.63492H30.7944V6.40741ZM32.022 6.40741H33.2495V7.63492H32.022V6.40741ZM33.2495 6.40741H34.477V7.63492H33.2495V6.40741ZM34.477 6.40741H35.7045V7.63492H34.477V6.40741ZM35.7045 6.40741H36.932V7.63492H35.7045V6.40741ZM36.932 6.40741H38.1595V7.63492H36.932V6.40741ZM38.1595 6.40741H39.387V7.63492H38.1595V6.40741ZM30.7944 5.17989H32.022V6.40741H30.7944V5.17989ZM32.022 5.17989H33.2495V6.40741H32.022V5.17989ZM35.7045 5.17989H36.932V6.40741H35.7045V5.17989ZM36.932 5.17989H38.1595V6.40741H36.932V5.17989ZM39.387 6.40741H40.6145V7.63492H39.387V6.40741ZM38.1595 7.63492H39.387V8.86243H38.1595V7.63492ZM38.1595 8.86243H39.387V10.0899H38.1595V8.86243ZM38.1595 10.0899H39.387V11.3175H38.1595V10.0899ZM36.932 10.0899H38.1595V11.3175H36.932V10.0899ZM36.932 8.86243H38.1595V10.0899H36.932V8.86243ZM36.932 7.63492H38.1595V8.86243H36.932V7.63492ZM32.022 7.63492H33.2495V8.86243H32.022V7.63492ZM33.2495 7.63492H34.477V8.86243H33.2495V7.63492ZM33.2495 8.86243H34.477V10.0899H33.2495V8.86243ZM33.2495 10.0899H34.477V11.3175H33.2495V10.0899ZM32.022 10.0899H33.2495V11.3175H32.022V10.0899ZM32.022 8.86243H33.2495V10.0899H32.022V8.86243ZM32.022 11.3175H33.2495V12.545H32.022V11.3175ZM33.2495 11.3175H34.477V12.545H33.2495V11.3175ZM33.2495 12.545H34.477V13.7725H33.2495V12.545ZM32.022 12.545H33.2495V13.7725H32.022V12.545ZM33.2495 13.7725H34.477V15H33.2495V13.7725ZM32.022 13.7725H33.2495V15H32.022V13.7725ZM30.7944 13.7725H32.022V15H30.7944V13.7725ZM30.7944 15H32.022V16.2275H30.7944V15ZM29.5669 15H30.7944V16.2275H29.5669V15ZM29.5669 16.2275H30.7944V17.455H29.5669V16.2275ZM36.932 12.545H38.1595V13.7725H36.932V12.545ZM38.1595 11.3175H39.387V12.545H38.1595V11.3175ZM36.932 11.3175H38.1595V12.545H36.932V11.3175ZM35.7045 11.3175H36.932V12.545H35.7045V11.3175ZM36.932 13.7725H38.1595V15H36.932V13.7725ZM35.7045 13.7725H36.932V15H35.7045V13.7725ZM34.477 13.7725H35.7045V15H34.477V13.7725ZM36.932 16.2275H38.1595V17.455H36.932V16.2275ZM35.7045 16.2275H36.932V17.455H35.7045V16.2275ZM35.7045 17.455H36.932V18.6825H35.7045V17.455ZM34.477 17.455H35.7045V18.6825H34.477V17.455ZM34.477 16.2275H35.7045V17.455H34.477V16.2275ZM33.2495 17.455H34.477V18.6825H33.2495V17.455ZM32.022 17.455H33.2495V18.6825H32.022V17.455ZM30.7944 17.455H32.022V18.6825H30.7944V17.455ZM32.022 15H33.2495V16.2275H32.022V15ZM47.994 12.545H49.2215V13.7725H47.994V12.545ZM49.2215 12.545H50.449V13.7725H49.2215V12.545ZM50.449 12.545H51.6765V13.7725H50.449V12.545ZM51.6765 12.545H52.9041V13.7725H51.6765V12.545ZM52.9041 12.545H54.1316V13.7725H52.9041V12.545ZM50.449 13.7725H51.6765V15H50.449V13.7725ZM51.6765 13.7725H52.9041V15H51.6765V13.7725ZM49.2215 11.3175H50.449V12.545H49.2215V11.3175ZM50.449 11.3175H51.6765V12.545H50.449V11.3175ZM50.449 10.0899H51.6765V11.3175H50.449V10.0899ZM50.449 8.86243H51.6765V10.0899H50.449V8.86243ZM49.2215 8.86243H50.449V10.0899H49.2215V8.86243ZM49.2215 10.0899H50.449V11.3175H49.2215V10.0899ZM49.2215 7.63492H50.449V8.86243H49.2215V7.63492ZM50.449 7.63492H51.6765V8.86243H50.449V7.63492ZM50.449 6.40741H51.6765V7.63492H50.449V6.40741ZM50.449 5.17989H51.6765V6.40741H50.449V5.17989ZM49.2215 6.40741H50.449V7.63492H49.2215V6.40741ZM49.2215 5.17989H50.449V6.40741H49.2215V5.17989ZM47.994 5.17989H49.2215V6.40741H47.994V5.17989ZM51.6765 5.17989H52.9041V6.40741H51.6765V5.17989ZM49.2215 3.95238H50.449V5.17989H49.2215V3.95238ZM50.449 3.95238H51.6765V5.17989H50.449V3.95238ZM50.449 2.72487H51.6765V3.95238H50.449V2.72487ZM49.2215 2.72487H50.449V3.95238H49.2215V2.72487ZM50.449 1.49735H51.6765V2.72487H50.449V1.49735ZM52.9041 5.17989H54.1316V6.40741H52.9041V5.17989ZM55.3699 12.545H56.5974V13.7725H55.3699V12.545ZM56.5974 12.545H57.8249V13.7725H56.5974V12.545ZM57.8249 12.545H59.0524V13.7725H57.8249V12.545ZM59.0524 12.545H60.2799V13.7725H59.0524V12.545ZM57.8249 13.7725H59.0524V15H57.8249V13.7725ZM61.5074 12.545H62.735V13.7725H61.5074V12.545ZM62.735 11.3175H63.9625V12.545H62.735V11.3175ZM61.5074 11.3175H62.735V12.545H61.5074V11.3175ZM61.5074 10.0899H62.735V11.3175H61.5074V10.0899ZM61.5074 8.86243H62.735V10.0899H61.5074V8.86243ZM62.735 8.86243H63.9625V10.0899H62.735V8.86243ZM62.735 10.0899H63.9625V11.3175H62.735V10.0899ZM56.5974 11.3175H57.8249V12.545H56.5974V11.3175ZM57.8249 11.3175H59.0524V12.545H57.8249V11.3175ZM57.8249 10.0899H59.0524V11.3175H57.8249V10.0899ZM56.5974 10.0899H57.8249V11.3175H56.5974V10.0899ZM56.5974 8.86243H57.8249V10.0899H56.5974V8.86243ZM62.735 7.63492H63.9625V8.86243H62.735V7.63492ZM61.5074 7.63492H62.735V8.86243H61.5074V7.63492ZM57.8249 7.63492H59.0524V8.86243H57.8249V7.63492ZM56.5974 7.63492H57.8249V8.86243H56.5974V7.63492ZM63.9625 6.40741H65.19V7.63492H63.9625V6.40741ZM62.735 6.40741H63.9625V7.63492H62.735V6.40741ZM61.5074 6.40741H62.735V7.63492H61.5074V6.40741ZM60.2799 6.40741H61.5074V7.63492H60.2799V6.40741ZM59.0524 5.17989H60.2799V6.40741H59.0524V5.17989ZM60.2799 5.17989H61.5074V6.40741H60.2799V5.17989ZM61.5074 5.17989H62.735V6.40741H61.5074V5.17989ZM57.8249 8.86243H59.0524V10.0899H57.8249V8.86243ZM57.8249 6.40741H59.0524V7.63492H57.8249V6.40741ZM59.0524 13.7725H60.2799V15H59.0524V13.7725ZM60.2799 12.545H61.5074V13.7725H60.2799V12.545ZM66.4211 12.545H67.6486V13.7725H66.4211V12.545ZM67.6486 12.545H68.8761V13.7725H67.6486V12.545ZM68.8761 12.545H70.1036V13.7725H68.8761V12.545ZM70.1036 12.545H71.3311V13.7725H70.1036V12.545ZM71.3311 12.545H72.5587V13.7725H71.3311V12.545ZM68.8761 13.7725H70.1036V15H68.8761V13.7725ZM70.1036 13.7725H71.3311V15H70.1036V13.7725ZM72.5587 12.545H73.7862V13.7725H72.5587V12.545ZM67.6486 11.3175H68.8761V12.545H67.6486V11.3175ZM67.6486 10.0899H68.8761V11.3175H67.6486V10.0899ZM68.8761 10.0899H70.1036V11.3175H68.8761V10.0899ZM68.8761 11.3175H70.1036V12.545H68.8761V11.3175ZM68.8761 5.17989H70.1036V6.40741H68.8761V5.17989ZM68.8761 7.63492H70.1036V8.86243H68.8761V7.63492ZM68.8761 8.86243H70.1036V10.0899H68.8761V8.86243ZM67.6486 8.86243H68.8761V10.0899H67.6486V8.86243ZM67.6486 7.63492H68.8761V8.86243H67.6486V7.63492ZM70.1036 3.95238H71.3311V5.17989H70.1036V3.95238ZM71.3311 3.95238H72.5587V5.17989H71.3311V3.95238ZM72.5587 3.95238H73.7862V5.17989H72.5587V3.95238ZM71.3311 5.17989H72.5587V6.40741H71.3311V5.17989ZM72.5587 5.17989H73.7862V6.40741H72.5587V5.17989ZM73.7862 5.17989H75.0137V6.40741H73.7862V5.17989ZM72.5587 7.63492H73.7862V8.86243H72.5587V7.63492ZM73.7862 7.63492H75.0137V8.86243H73.7862V7.63492ZM73.7862 8.86243H75.0137V10.0899H73.7862V8.86243ZM73.7862 10.0899H75.0137V11.3175H73.7862V10.0899ZM72.5587 10.0899H73.7862V11.3175H72.5587V10.0899ZM72.5587 8.86243H73.7862V10.0899H72.5587V8.86243ZM72.5587 11.3175H73.7862V12.545H72.5587V11.3175ZM73.7862 11.3175H75.0137V12.545H73.7862V11.3175ZM71.3311 2.72487H72.5587V3.95238H71.3311V2.72487ZM70.1036 2.72487H71.3311V3.95238H70.1036V2.72487ZM68.8761 2.72487H70.1036V3.95238H68.8761V2.72487ZM70.1036 1.49735H71.3311V2.72487H70.1036V1.49735ZM68.8761 1.49735H70.1036V2.72487H68.8761V1.49735ZM67.6486 0.26984H68.8761V1.49735H67.6486V0.26984ZM67.6486 1.49735H68.8761V2.72487H67.6486V1.49735ZM67.6486 6.40741H68.8761V7.63492H67.6486V6.40741ZM68.8761 6.40741H70.1036V7.63492H68.8761V6.40741ZM72.5587 6.40741H73.7862V7.63492H72.5587V6.40741ZM73.7862 6.40741H75.0137V7.63492H73.7862V6.40741ZM77.4663 12.545H78.6938V13.7725H77.4663V12.545ZM78.6938 12.545H79.9213V13.7725H78.6938V12.545ZM79.9213 12.545H81.1489V13.7725H79.9213V12.545ZM81.1489 12.545H82.3764V13.7725H81.1489V12.545ZM78.6938 13.7725H79.9213V15H78.6938V13.7725ZM79.9213 13.7725H81.1489V15H79.9213V13.7725ZM76.2388 12.545H77.4663V13.7725H76.2388V12.545ZM77.4663 11.3175H78.6938V12.545H77.4663V11.3175ZM77.4663 10.0899H78.6938V11.3175H77.4663V10.0899ZM77.4663 8.86243H78.6938V10.0899H77.4663V8.86243ZM78.6938 11.3175H79.9213V12.545H78.6938V11.3175ZM78.6938 10.0899H79.9213V11.3175H78.6938V10.0899ZM78.6938 8.86243H79.9213V10.0899H78.6938V8.86243ZM78.6938 7.63492H79.9213V8.86243H78.6938V7.63492ZM82.3764 6.40741H83.6039V7.63492H82.3764V6.40741ZM82.3764 7.63492H83.6039V8.86243H82.3764V7.63492ZM83.6039 7.63492H84.8314V8.86243H83.6039V7.63492ZM82.3764 8.86243H83.6039V10.0899H82.3764V8.86243ZM83.6039 8.86243H84.8314V10.0899H83.6039V8.86243ZM83.6039 10.0899H84.8314V11.3175H83.6039V10.0899ZM82.3764 10.0899H83.6039V11.3175H82.3764V10.0899ZM82.3764 11.3175H83.6039V12.545H82.3764V11.3175ZM83.6039 11.3175H84.8314V12.545H83.6039V11.3175ZM82.3764 12.545H83.6039V13.7725H82.3764V12.545ZM82.3764 13.7725H83.6039V15H82.3764V13.7725ZM83.6039 13.7725H84.8314V15H83.6039V13.7725ZM83.6039 12.545H84.8314V13.7725H83.6039V12.545ZM84.8314 12.545H86.0589V13.7725H84.8314V12.545ZM79.9213 5.17989H81.1489V6.40741H79.9213V5.17989ZM81.1489 5.17989H82.3764V6.40741H81.1489V5.17989ZM82.3764 5.17989H83.6039V6.40741H82.3764V5.17989ZM84.8314 6.40741H86.0589V7.63492H84.8314V6.40741ZM83.6039 6.40741H84.8314V7.63492H83.6039V6.40741ZM78.6938 6.40741H79.9213V7.63492H78.6938V6.40741ZM77.4663 7.63492H78.6938V8.86243H77.4663V7.63492ZM87.29 6.40741H88.5175V7.63492H87.29V6.40741ZM88.5175 6.40741H89.745V7.63492H88.5175V6.40741ZM89.745 6.40741H90.9726V7.63492H89.745V6.40741ZM90.9726 6.40741H92.2001V7.63492H90.9726V6.40741ZM92.2001 6.40741H93.4276V7.63492H92.2001V6.40741ZM93.4276 6.40741H94.6551V7.63492H93.4276V6.40741ZM94.6551 6.40741H95.8826V7.63492H94.6551V6.40741ZM95.8826 6.40741H97.1101V7.63492H95.8826V6.40741ZM88.5175 5.17989H89.745V6.40741H88.5175V5.17989ZM89.745 5.17989H90.9726V6.40741H89.745V5.17989ZM93.4276 5.17989H94.6551V6.40741H93.4276V5.17989ZM94.6551 5.17989H95.8826V6.40741H94.6551V5.17989ZM97.1101 6.40741H98.3376V7.63492H97.1101V6.40741ZM95.8826 7.63492H97.1101V8.86243H95.8826V7.63492ZM95.8826 8.86243H97.1101V10.0899H95.8826V8.86243ZM95.8826 10.0899H97.1101V11.3175H95.8826V10.0899ZM94.6551 10.0899H95.8826V11.3175H94.6551V10.0899ZM94.6551 8.86243H95.8826V10.0899H94.6551V8.86243ZM94.6551 7.63492H95.8826V8.86243H94.6551V7.63492ZM89.745 7.63492H90.9726V8.86243H89.745V7.63492ZM90.9726 7.63492H92.2001V8.86243H90.9726V7.63492ZM90.9726 8.86243H92.2001V10.0899H90.9726V8.86243ZM90.9726 10.0899H92.2001V11.3175H90.9726V10.0899ZM89.745 10.0899H90.9726V11.3175H89.745V10.0899ZM89.745 8.86243H90.9726V10.0899H89.745V8.86243ZM89.745 11.3175H90.9726V12.545H89.745V11.3175ZM90.9726 11.3175H92.2001V12.545H90.9726V11.3175ZM90.9726 12.545H92.2001V13.7725H90.9726V12.545ZM89.745 12.545H90.9726V13.7725H89.745V12.545ZM90.9726 13.7725H92.2001V15H90.9726V13.7725ZM89.745 13.7725H90.9726V15H89.745V13.7725ZM88.5175 13.7725H89.745V15H88.5175V13.7725ZM88.5175 15H89.745V16.2275H88.5175V15ZM87.29 15H88.5175V16.2275H87.29V15ZM87.29 16.2275H88.5175V17.455H87.29V16.2275ZM94.6551 12.545H95.8826V13.7725H94.6551V12.545ZM95.8826 11.3175H97.1101V12.545H95.8826V11.3175ZM94.6551 11.3175H95.8826V12.545H94.6551V11.3175ZM93.4276 11.3175H94.6551V12.545H93.4276V11.3175ZM94.6551 13.7725H95.8826V15H94.6551V13.7725ZM93.4276 13.7725H94.6551V15H93.4276V13.7725ZM92.2001 13.7725H93.4276V15H92.2001V13.7725ZM94.6551 16.2275H95.8826V17.455H94.6551V16.2275ZM93.4276 16.2275H94.6551V17.455H93.4276V16.2275ZM93.4276 17.455H94.6551V18.6825H93.4276V17.455ZM92.2001 17.455H93.4276V18.6825H92.2001V17.455ZM92.2001 16.2275H93.4276V17.455H92.2001V16.2275ZM90.9726 17.455H92.2001V18.6825H90.9726V17.455ZM89.745 17.455H90.9726V18.6825H89.745V17.455ZM88.5175 17.455H89.745V18.6825H88.5175V17.455ZM89.745 15H90.9726V16.2275H89.745V15ZM103.257 5.17989H104.485V6.40741H103.257V5.17989ZM104.485 5.17989H105.712V6.40741H104.485V5.17989ZM102.03 6.40741H103.257V7.63492H102.03V6.40741ZM103.257 6.40741H104.485V7.63492H103.257V6.40741ZM104.485 6.40741H105.712V7.63492H104.485V6.40741ZM105.712 6.40741H106.94V7.63492H105.712V6.40741ZM106.94 5.17989H108.167V6.40741H106.94V5.17989ZM100.802 7.63492H102.03V8.86243H100.802V7.63492ZM100.802 8.86243H102.03V10.0899H100.802V8.86243ZM106.94 3.95238H108.167V5.17989H106.94V3.95238ZM106.94 7.63492H108.167V8.86243H106.94V7.63492ZM102.03 7.63492H103.257V8.86243H102.03V7.63492ZM102.03 8.86243H103.257V10.0899H102.03V8.86243ZM100.802 10.0899H102.03V11.3175H100.802V10.0899ZM102.03 10.0899H103.257V11.3175H102.03V10.0899ZM103.257 10.0899H104.485V11.3175H103.257V10.0899ZM104.485 8.86243H105.712V10.0899H104.485V8.86243ZM105.712 8.86243H106.94V10.0899H105.712V8.86243ZM102.03 11.3175H103.257V12.545H102.03V11.3175ZM100.802 12.545H102.03V13.7725H100.802V12.545ZM102.03 12.545H103.257V13.7725H102.03V12.545ZM103.257 12.545H104.485V13.7725H103.257V12.545ZM104.485 12.545H105.712V13.7725H104.485V12.545ZM105.712 12.545H106.94V13.7725H105.712V12.545ZM103.257 13.7725H104.485V15H103.257V13.7725ZM104.485 13.7725H105.712V15H104.485V13.7725ZM99.5747 13.7725H100.802V15H99.5747V13.7725ZM105.712 10.0899H106.94V11.3175H105.712V10.0899ZM105.712 11.3175H106.94V12.545H105.712V11.3175ZM106.94 10.0899H108.167V11.3175H106.94V10.0899ZM106.94 11.3175H108.167V12.545H106.94V11.3175ZM115.535 13.7725H116.762V15H115.535V13.7725ZM116.762 12.545H117.99V13.7725H116.762V12.545ZM117.99 13.7725H119.217V15H117.99V13.7725ZM117.99 12.545H119.217V13.7725H117.99V12.545ZM117.99 11.3175H119.217V12.545H117.99V11.3175ZM119.217 11.3175H120.445V12.545H119.217V11.3175ZM119.217 10.0899H120.445V11.3175H119.217V10.0899ZM119.217 12.545H120.445V13.7725H119.217V12.545ZM119.217 13.7725H120.445V15H119.217V13.7725ZM117.99 15H119.217V16.2275H117.99V15ZM117.99 16.2275H119.217V17.455H117.99V16.2275ZM117.99 17.455H119.217V18.6825H117.99V17.455ZM119.217 16.2275H120.445V17.455H119.217V16.2275ZM119.217 15H120.445V16.2275H119.217V15ZM117.99 10.0899H119.217V11.3175H117.99V10.0899ZM117.99 8.86243H119.217V10.0899H117.99V8.86243ZM117.99 7.63492H119.217V8.86243H117.99V7.63492ZM117.99 6.40741H119.217V7.63492H117.99V6.40741ZM115.535 6.40741H116.762V7.63492H115.535V6.40741ZM116.762 6.40741H117.99V7.63492H116.762V6.40741ZM116.762 5.17989H117.99V6.40741H116.762V5.17989ZM117.99 5.17989H119.217V6.40741H117.99V5.17989ZM119.217 6.40741H120.445V7.63492H119.217V6.40741ZM120.445 6.40741H121.672V7.63492H120.445V6.40741ZM121.672 6.40741H122.9V7.63492H121.672V6.40741ZM122.9 6.40741H124.127V7.63492H122.9V6.40741ZM124.127 6.40741H125.355V7.63492H124.127V6.40741ZM121.672 5.17989H122.9V6.40741H121.672V5.17989ZM122.9 5.17989H124.127V6.40741H122.9V5.17989ZM125.355 6.40741H126.582V7.63492H125.355V6.40741ZM124.127 7.63492H125.355V8.86243H124.127V7.63492ZM124.127 8.86243H125.355V10.0899H124.127V8.86243ZM124.127 10.0899H125.355V11.3175H124.127V10.0899ZM124.127 11.3175H125.355V12.545H124.127V11.3175ZM122.9 11.3175H124.127V12.545H122.9V11.3175ZM122.9 10.0899H124.127V11.3175H122.9V10.0899ZM122.9 8.86243H124.127V10.0899H122.9V8.86243ZM122.9 7.63492H124.127V8.86243H122.9V7.63492ZM119.217 8.86243H120.445V10.0899H119.217V8.86243ZM119.217 7.63492H120.445V8.86243H119.217V7.63492ZM122.9 13.7725H124.127V15H122.9V13.7725ZM122.9 12.545H124.127V13.7725H122.9V12.545ZM124.127 12.545H125.355V13.7725H124.127V12.545ZM125.355 12.545H126.582V13.7725H125.355V12.545ZM121.672 12.545H122.9V13.7725H121.672V12.545ZM120.445 12.545H121.672V13.7725H120.445V12.545ZM127.82 6.40741H129.047V7.63492H127.82V6.40741ZM129.047 6.40741H130.275V7.63492H129.047V6.40741ZM130.275 6.40741H131.502V7.63492H130.275V6.40741ZM131.502 6.40741H132.73V7.63492H131.502V6.40741ZM129.047 5.17989H130.275V6.40741H129.047V5.17989ZM130.275 5.17989H131.502V6.40741H130.275V5.17989ZM133.957 6.40741H135.185V7.63492H133.957V6.40741ZM135.185 6.40741H136.412V7.63492H135.185V6.40741ZM136.412 6.40741H137.64V7.63492H136.412V6.40741ZM137.64 6.40741H138.867V7.63492H137.64V6.40741ZM135.185 5.17989H136.412V6.40741H135.185V5.17989ZM136.412 5.17989H137.64V6.40741H136.412V5.17989ZM131.502 7.63492H132.73V8.86243H131.502V7.63492ZM130.275 7.63492H131.502V8.86243H130.275V7.63492ZM130.275 8.86243H131.502V10.0899H130.275V8.86243ZM130.275 10.0899H131.502V11.3175H130.275V10.0899ZM131.502 10.0899H132.73V11.3175H131.502V10.0899ZM131.502 11.3175H132.73V12.545H131.502V11.3175ZM131.502 8.86243H132.73V10.0899H131.502V8.86243ZM130.275 11.3175H131.502V12.545H130.275V11.3175ZM135.185 7.63492H136.412V8.86243H135.185V7.63492ZM136.412 7.63492H137.64V8.86243H136.412V7.63492ZM136.412 8.86243H137.64V10.0899H136.412V8.86243ZM136.412 10.0899H137.64V11.3175H136.412V10.0899ZM136.412 11.3175H137.64V12.545H136.412V11.3175ZM135.185 10.0899H136.412V11.3175H135.185V10.0899ZM135.185 8.86243H136.412V10.0899H135.185V8.86243ZM135.185 11.3175H136.412V12.545H135.185V11.3175ZM129.047 12.545H130.275V13.7725H129.047V12.545ZM130.275 12.545H131.502V13.7725H130.275V12.545ZM131.502 12.545H132.73V13.7725H131.502V12.545ZM132.73 12.545H133.957V13.7725H132.73V12.545ZM133.957 12.545H135.185V13.7725H133.957V12.545ZM135.185 12.545H136.412V13.7725H135.185V12.545ZM136.412 12.545H137.64V13.7725H136.412V12.545ZM137.64 12.545H138.867V13.7725H137.64V12.545ZM131.502 13.7725H132.73V15H131.502V13.7725ZM132.73 13.7725H133.957V15H132.73V13.7725ZM138.867 12.545H140.095V13.7725H138.867V12.545ZM137.64 13.7725H138.867V15H137.64V13.7725ZM136.412 13.7725H137.64V15H136.412V13.7725ZM143.768 5.17989H144.995V6.40741H143.768V5.17989ZM144.995 6.40741H146.223V7.63492H144.995V6.40741ZM146.223 6.40741H147.45V7.63492H146.223V6.40741ZM147.45 6.40741H148.678V7.63492H147.45V6.40741ZM148.678 6.40741H149.905V7.63492H148.678V6.40741ZM149.905 5.17989H151.133V6.40741H149.905V5.17989ZM147.45 7.63492H148.678V8.86243H147.45V7.63492ZM146.223 8.86243H147.45V10.0899H146.223V8.86243ZM144.995 10.0899H146.223V11.3175H144.995V10.0899ZM143.768 11.3175H144.995V12.545H143.768V11.3175ZM146.223 12.545H147.45V13.7725H146.223V12.545ZM148.678 12.545H149.905V13.7725H148.678V12.545ZM149.905 12.545H151.133V13.7725H149.905V12.545ZM149.905 11.3175H151.133V12.545H149.905V11.3175ZM148.678 13.7725H149.905V15H148.678V13.7725ZM147.45 13.7725H148.678V15H147.45V13.7725ZM143.768 12.545H144.995V13.7725H143.768V12.545ZM144.995 12.545H146.223V13.7725H144.995V12.545ZM142.54 12.545H143.768V13.7725H142.54V12.545ZM141.313 13.7725H142.54V15H141.313V13.7725ZM146.223 13.7725H147.45V15H146.223V13.7725ZM141.313 7.63492H142.54V8.86243H141.313V7.63492ZM141.313 6.40741H142.54V7.63492H141.313V6.40741ZM142.54 6.40741H143.768V7.63492H142.54V6.40741ZM143.768 6.40741H144.995V7.63492H143.768V6.40741ZM142.54 5.17989H143.768V6.40741H142.54V5.17989ZM147.45 12.545H148.678V13.7725H147.45V12.545ZM144.995 5.17989H146.223V6.40741H144.995V5.17989ZM144.995 13.7725H146.223V15H144.995V13.7725ZM146.223 5.17989H147.45V6.40741H146.223V5.17989ZM154.819 5.17989H156.046V6.40741H154.819V5.17989ZM156.046 6.40741H157.274V7.63492H156.046V6.40741ZM157.274 6.40741H158.501V7.63492H157.274V6.40741ZM158.501 6.40741H159.729V7.63492H158.501V6.40741ZM159.729 6.40741H160.956V7.63492H159.729V6.40741ZM160.956 5.17989H162.184V6.40741H160.956V5.17989ZM158.501 7.63492H159.729V8.86243H158.501V7.63492ZM157.274 8.86243H158.501V10.0899H157.274V8.86243ZM156.046 10.0899H157.274V11.3175H156.046V10.0899ZM154.819 11.3175H156.046V12.545H154.819V11.3175ZM157.274 12.545H158.501V13.7725H157.274V12.545ZM159.729 12.545H160.956V13.7725H159.729V12.545ZM160.956 12.545H162.184V13.7725H160.956V12.545ZM160.956 11.3175H162.184V12.545H160.956V11.3175ZM159.729 13.7725H160.956V15H159.729V13.7725ZM158.501 13.7725H159.729V15H158.501V13.7725ZM154.819 12.545H156.046V13.7725H154.819V12.545ZM156.046 12.545H157.274V13.7725H156.046V12.545ZM153.591 12.545H154.819V13.7725H153.591V12.545ZM152.364 13.7725H153.591V15H152.364V13.7725ZM157.274 13.7725H158.501V15H157.274V13.7725ZM152.364 7.63492H153.591V8.86243H152.364V7.63492ZM152.364 6.40741H153.591V7.63492H152.364V6.40741ZM153.591 6.40741H154.819V7.63492H153.591V6.40741ZM154.819 6.40741H156.046V7.63492H154.819V6.40741ZM153.591 5.17989H154.819V6.40741H153.591V5.17989ZM158.501 12.545H159.729V13.7725H158.501V12.545ZM156.046 5.17989H157.274V6.40741H156.046V5.17989ZM156.046 13.7725H157.274V15H156.046V13.7725ZM157.274 5.17989H158.501V6.40741H157.274V5.17989ZM164.643 13.7725H165.87V15H164.643V13.7725ZM165.87 13.7725H167.098V15H165.87V13.7725ZM163.415 12.545H164.643V13.7725H163.415V12.545ZM164.643 12.545H165.87V13.7725H164.643V12.545ZM165.87 12.545H167.098V13.7725H165.87V12.545ZM167.098 12.545H168.325V13.7725H167.098V12.545ZM164.643 11.3175H165.87V12.545H164.643V11.3175ZM165.87 11.3175H167.098V12.545H165.87V11.3175ZM165.87 10.0899H167.098V11.3175H165.87V10.0899ZM165.87 8.86243H167.098V10.0899H165.87V8.86243ZM164.643 8.86243H165.87V10.0899H164.643V8.86243ZM164.643 7.63492H165.87V8.86243H164.643V7.63492ZM164.643 6.40741H165.87V7.63492H164.643V6.40741ZM164.643 10.0899H165.87V11.3175H164.643V10.0899ZM165.87 7.63492H167.098V8.86243H165.87V7.63492ZM165.87 6.40741H167.098V7.63492H165.87V6.40741ZM165.87 5.17989H167.098V6.40741H165.87V5.17989ZM165.87 1.49735H167.098V2.72487H165.87V1.49735ZM165.87 2.72487H167.098V3.95238H165.87V2.72487ZM165.87 3.95238H167.098V5.17989H165.87V3.95238ZM164.643 5.17989H165.87V6.40741H164.643V5.17989ZM164.643 3.95238H165.87V5.17989H164.643V3.95238ZM164.643 2.72487H165.87V3.95238H164.643V2.72487ZM164.643 1.49735H165.87V2.72487H164.643V1.49735ZM165.87 0.26984H167.098V1.49735H165.87V0.26984ZM170.785 12.545H172.012V13.7725H170.785V12.545ZM169.557 12.545H170.785V13.7725H169.557V12.545ZM172.012 12.545H173.24V13.7725H172.012V12.545ZM170.785 13.7725H172.012V15H170.785V13.7725ZM172.012 13.7725H173.24V15H172.012V13.7725ZM170.785 10.0899H172.012V11.3175H170.785V10.0899ZM172.012 10.0899H173.24V11.3175H172.012V10.0899ZM172.012 8.86243H173.24V10.0899H172.012V8.86243ZM172.012 7.63492H173.24V8.86243H172.012V7.63492ZM170.785 7.63492H172.012V8.86243H170.785V7.63492ZM170.785 8.86243H172.012V10.0899H170.785V8.86243ZM172.012 6.40741H173.24V7.63492H172.012V6.40741ZM173.24 5.17989H174.467V6.40741H173.24V5.17989ZM175.695 5.17989H176.922V6.40741H175.695V5.17989ZM174.467 5.17989H175.695V6.40741H174.467V5.17989ZM175.695 6.40741H176.922V7.63492H175.695V6.40741ZM173.24 12.545H174.467V13.7725H173.24V12.545ZM174.467 6.40741H175.695V7.63492H174.467V6.40741ZM176.922 6.40741H178.15V7.63492H176.922V6.40741ZM176.922 7.63492H178.15V8.86243H176.922V7.63492ZM175.695 7.63492H176.922V8.86243H175.695V7.63492ZM174.467 8.86243H175.695V10.0899H174.467V8.86243ZM173.24 8.86243H174.467V10.0899H173.24V8.86243ZM170.785 11.3175H172.012V12.545H170.785V11.3175ZM172.012 11.3175H173.24V12.545H172.012V11.3175ZM174.467 12.545H175.695V13.7725H174.467V12.545Z" fill="#F5F5F5"/>
</svg>
